<svg xmlns="http://www.w3.org/2000/svg" viewBox="0 0 64 64">
  <defs>
    <linearGradient id="bg" x1="8" y1="6" x2="56" y2="58" gradientUnits="userSpaceOnUse">
      <stop stop-color="#0f172a"/>
      <stop offset="1" stop-color="#020617"/>
    </linearGradient>
    <linearGradient id="bubble" x1="13" y1="18" x2="54" y2="50" gradientUnits="userSpaceOnUse">
      <stop stop-color="#7dd3fc"/>
      <stop offset="1" stop-color="#2563eb"/>
    </linearGradient>
  </defs>
  <rect width="64" height="64" rx="14" fill="url(#bg)"/>
  <path d="M18 18h28a9 9 0 0 1 9 9v9a9 9 0 0 1-9 9H34l-12 8v-8h-4a9 9 0 0 1-9-9v-9a9 9 0 0 1 9-9Z" fill="url(#bubble)"/>
  <path d="M22 28h25M22 36h17" fill="none" stroke="#f8fafc" stroke-width="5" stroke-linecap="round"/>
  <circle cx="48" cy="18" r="9" fill="#34d399"/>
  <path d="m44.5 18.5 2.7 2.6 5.2-6" fill="none" stroke="#022c22" stroke-width="3" stroke-linecap="round" stroke-linejoin="round"/>
</svg>
